<svg xmlns="http://www.w3.org/2000/svg" width="38.468" height="38.686" viewBox="0 0 38.468 38.686">
  <g id="Grupo_422" data-name="Grupo 422" transform="translate(-139.72 -76.747)">
    <g id="Grupo_247" data-name="Grupo 247" transform="translate(0 -15)">
      <circle id="Elipse_31" data-name="Elipse 31" cx="4.167" cy="4.167" r="4.167" transform="translate(139.72 110.437) rotate(-30)" fill="#545871"/>
      <circle id="Elipse_32" data-name="Elipse 32" cx="4.167" cy="4.167" r="4.167" transform="translate(142.882 100.913) rotate(-30)" fill="#545871"/>
      <circle id="Elipse_33" data-name="Elipse 33" cx="4.167" cy="4.167" r="4.167" transform="translate(151.542 95.913) rotate(-30)" fill="#545871"/>
      <circle id="Elipse_34" data-name="Elipse 34" cx="4.167" cy="4.167" r="4.167" transform="translate(161.371 97.937) rotate(-30)" fill="#545871"/>
      <path id="Trazado_102" data-name="Trazado 102" d="M26.238,17.767c-1.45-1.7-2.667-3.15-4.133-4.85a7.071,7.071,0,0,0-2.917-2.2,3.374,3.374,0,0,0-.55-.15,8.388,8.388,0,0,0-1.3-.067,6.992,6.992,0,0,0-1.317.083,3.374,3.374,0,0,0-.55.15,7.18,7.18,0,0,0-2.917,2.2c-1.45,1.7-2.667,3.15-4.133,4.85-2.183,2.183-4.867,4.6-4.367,7.983a5.233,5.233,0,0,0,3.883,3.867c1.217.25,5.1-.733,9.233-.733h.3c4.133,0,8.017.967,9.233.733a5.258,5.258,0,0,0,3.883-3.867c.517-3.4-2.167-5.817-4.35-8Z" transform="translate(136.806 106.731) rotate(-30)" fill="#545871"/>
    </g>
  </g>
</svg>
